<svg width="90" height="19" viewBox="0 0 90 19" fill="none" xmlns="http://www.w3.org/2000/svg">
<path d="M82.5836 15.9194C84.1706 15.9194 85.4826 14.8823 85.4826 13.4328V12.4581L82.6586 12.6331C81.2966 12.733 80.5218 13.3453 80.5218 14.295C80.5218 15.2946 81.3465 15.9194 82.5836 15.9194ZM81.384 18.556C78.8349 18.556 76.8981 16.9066 76.8981 14.4949C76.8981 12.0583 78.7724 10.6463 82.1088 10.4463L85.4826 10.2464V9.35922C85.4826 8.10965 84.6079 7.38491 83.2334 7.38491C81.8714 7.38491 81.0092 8.05967 80.8342 9.04682H77.4979C77.6353 6.44773 79.8471 4.66086 83.3958 4.66086C86.8321 4.66086 89.0688 6.43524 89.0688 9.13429V18.3436H85.5451V16.2943H85.4701C84.7204 17.7188 83.0584 18.556 81.384 18.556Z" fill="black"/>
<path d="M68.4136 18.3436V4.94827H71.9373V7.35992H72.0123C72.4871 5.66052 73.6243 4.73584 75.1987 4.73584C75.6236 4.73584 75.9859 4.79832 76.2358 4.87329V8.08467C75.9359 7.95971 75.4361 7.87224 74.9113 7.87224C73.1119 7.87224 72.0623 8.97186 72.0623 10.8587V18.3436H68.4136Z" fill="black"/>
<path d="M60.2664 18.3436V7.69729H58.4421V5.01073H60.2664V3.99859C60.2664 1.3745 61.5035 0.149933 64.6774 0.149933C65.3522 0.149933 66.1144 0.224907 66.5392 0.312376V2.72403C66.2768 2.67405 65.9145 2.64906 65.5521 2.64906C64.3525 2.64906 63.8277 3.17388 63.8277 4.12354V5.01073H66.4893V7.69729H63.9152V18.3436H60.2664Z" fill="black"/>
<path d="M44.5469 18.3436V4.94828H48.0707V7.33494H48.1457C48.8579 5.67302 50.2699 4.69836 52.3317 4.69836C55.3057 4.69836 56.9801 6.57271 56.9801 9.70911V18.3436H53.3314V10.4713C53.3314 8.72196 52.5067 7.72231 50.8697 7.72231C49.2328 7.72231 48.1957 8.92189 48.1957 10.6588V18.3436H44.5469Z" fill="black"/>
<path d="M41.8604 18.3436H38.0867V0.312378H41.8604V18.3436Z" fill="black"/>
<path d="M16.1693 13.2079H19.8056C19.9805 14.6949 21.53 15.6695 23.5293 15.6695C25.5411 15.6695 26.9156 14.7074 26.9156 13.3828C26.9156 12.2082 26.0534 11.5585 23.8791 11.0711L21.53 10.5588C18.2061 9.84656 16.5692 8.15965 16.5692 5.52307C16.5692 2.19923 19.4432 0 23.4668 0C27.6653 0 30.3019 2.16174 30.3644 5.4231H26.8281C26.7032 3.89864 25.3661 2.97396 23.4793 2.97396C21.6174 2.97396 20.3679 3.86115 20.3679 5.19818C20.3679 6.31029 21.2426 6.93507 23.3168 7.40991L25.5036 7.87225C29.1148 8.64698 30.6893 10.1964 30.6893 12.9455C30.6893 16.4443 27.8528 18.656 23.3793 18.656C19.0433 18.656 16.2818 16.5942 16.1693 13.2079Z" fill="black"/>
<path d="M0 13.2079H3.63623C3.81117 14.6949 5.36063 15.6695 7.35993 15.6695C9.37172 15.6695 10.7462 14.7074 10.7462 13.3828C10.7462 12.2082 9.88404 11.5585 7.7098 11.0711L5.36063 10.5588C2.03679 9.84656 0.39986 8.15965 0.39986 5.52307C0.39986 2.19923 3.27386 0 7.29745 0C11.496 0 14.1326 2.16174 14.195 5.4231H10.6588C10.5338 3.89864 9.19678 2.97396 7.30994 2.97396C5.44809 2.97396 4.19853 3.86115 4.19853 5.19818C4.19853 6.31029 5.07323 6.93507 7.1475 7.40991L9.33424 7.87225C12.9455 8.64698 14.5199 10.1964 14.5199 12.9455C14.5199 16.4443 11.6834 18.656 7.20998 18.656C2.874 18.656 0.112461 16.5942 0 13.2079Z" fill="black"/>
</svg>
